<svg xmlns="http://www.w3.org/2000/svg" viewBox="0 0 512 512">
    <path fill="currentColor" d="M490.3 64.71c-12.5-12.5-32.75-12.5-45.25 0L331.4 178.6c-12.5 12.5-12.5 32.75 0 45.25l24.75 24.75c12.5 12.5 32.75 12.5 45.25 0l105.4-105.4c12.5-12.5 12.5-32.75 0-45.25L490.3 64.71zm-215.1 184.9L30.63 473.2C24.38 479.5 16.19 482.6 8 482.6S-0.375 479.5-6.625 473.2C-12.88 466.1-12.88 456.9-6.625 450.6L246.7 187.3C253 181.1 261.2 178 269.4 178s16.38 3.125 22.62 9.375l24.75 24.75c12.5 12.5 12.5 32.75 0 45.25L275.2 249.6zM207.2 289.4c-12.5-12.5-32.75-12.5-45.25 0L8.75 442.7C2.5 449 2.5 458.2 8.75 464.4L35 490.7c6.25 6.25 14.44 9.375 22.62 9.375s16.38-3.125 22.62-9.375L207.2 334.6c12.5-12.5 12.5-32.75 0-45.25z"/>
</svg>